<?xml version="1.0" standalone="no"?>
<!DOCTYPE svg PUBLIC "-//W3C//DTD SVG 20010904//EN"
 "http://www.w3.org/TR/2001/REC-SVG-20010904/DTD/svg10.dtd">
<svg version="1.0" xmlns="http://www.w3.org/2000/svg"
 width="348.000000pt" height="174.000000pt" viewBox="0 0 348.000000 174.000000"
 preserveAspectRatio="xMidYMid meet">
<metadata>
Created by potrace 1.16, written by Peter Selinger 2001-2019
</metadata>
<g transform="translate(0.000000,174.000000) scale(0.100000,-0.100000)"
fill="#fff" stroke="none">
<path d="M1431 1401 l-81 -46 2 -275 3 -274 154 -88 c89 -51 161 -86 169 -83
9 3 82 44 164 91 l148 86 0 88 0 89 75 42 75 43 0 97 0 97 -81 46 -81 46 -84
-48 -83 -47 -1 -90 -1 -90 -64 -37 -65 -36 -2 171 -3 171 -82 47 -81 47 -81
-47z m144 -12 c30 -17 57 -35 60 -39 3 -5 -24 -24 -59 -44 l-64 -36 -67 39
-67 38 64 36 c34 20 66 36 71 37 4 0 32 -14 62 -31z m514 -117 c24 -14 23 -14
-44 -52 l-67 -38 -64 37 c-35 20 -64 38 -64 41 0 3 29 21 63 41 l62 36 45 -25
c25 -14 56 -32 69 -40z m-587 -197 l3 -179 78 -44 77 -43 0 -75 c0 -40 -3 -74
-7 -73 -5 0 -69 35 -143 78 l-135 79 -3 255 -2 256 65 -37 64 -37 3 -180z
m158 85 l0 -159 -61 -36 c-33 -19 -64 -35 -70 -35 -5 0 -9 66 -9 160 l0 159
58 35 c31 19 63 35 70 35 9 1 12 -37 12 -159z m245 41 l60 -38 3 -71 c2 -50
-1 -72 -9 -72 -6 0 -38 16 -70 36 l-59 35 0 75 c0 41 3 74 8 73 4 0 34 -17 67
-38z m215 -38 l-1 -78 -64 -37 -65 -36 0 77 0 77 63 36 c34 21 63 37 65 38 1
0 2 -35 2 -77z m-232 -129 c77 -43 85 -32 -97 -135 l-123 -71 -44 24 c-100 53
-103 45 52 136 77 44 141 81 143 81 2 1 33 -15 69 -35z m82 -138 l0 -74 -72
-41 c-160 -89 -183 -103 -192 -112 -22 -20 -27 -5 -24 68 l3 77 135 78 c74 43
138 78 143 78 4 0 7 -33 7 -74z"/>
<path d="M880 465 l0 -205 95 0 95 0 0 30 0 30 -60 0 -60 0 0 175 0 175 -35 0
-35 0 0 -205z"/>
<path d="M2530 465 l0 -205 35 0 35 0 0 205 0 205 -35 0 -35 0 0 -205z"/>
<path d="M1175 526 c-65 -30 -95 -92 -81 -168 16 -87 143 -139 200 -82 15 14
16 14 16 0 0 -12 10 -16 35 -16 l35 0 0 135 0 135 -35 0 c-26 0 -35 -4 -35
-17 0 -15 -1 -15 -19 1 -25 23 -80 29 -116 12z m110 -71 c67 -66 -12 -180 -94
-135 -10 5 -24 23 -31 39 -35 87 61 161 125 96z"/>
<path d="M1695 526 c-53 -24 -78 -60 -83 -121 -4 -46 -1 -61 19 -90 42 -61
141 -82 184 -39 13 14 15 14 15 0 0 -12 10 -16 35 -16 l35 0 0 135 0 135 -35
0 c-26 0 -35 -4 -35 -17 0 -15 -1 -15 -19 1 -25 23 -80 29 -116 12z m110 -71
c52 -51 16 -145 -55 -145 -38 0 -80 39 -80 75 0 31 24 81 42 88 32 13 70 6 93
-18z"/>
<path d="M2305 526 c-17 -7 -43 -28 -58 -45 -34 -41 -38 -119 -8 -167 39 -64
146 -81 211 -34 35 25 37 35 9 50 -17 9 -25 8 -41 -6 -30 -28 -95 -25 -119 5
-10 13 -19 27 -19 32 0 5 47 9 105 9 l105 0 0 37 c0 38 -29 92 -61 112 -30 18
-92 22 -124 7z"/>
<path d="M1430 395 l0 -135 30 0 30 0 0 105 0 105 55 0 c54 0 55 0 55 30 l0
30 -85 0 -85 0 0 -135z"/>
<path d="M1930 528 c0 -2 23 -62 50 -133 28 -71 50 -131 50 -132 0 -2 20 -3
43 -3 42 0 44 2 55 38 6 20 29 81 50 135 l40 97 -33 0 c-32 0 -33 -2 -71 -100
-20 -55 -41 -97 -45 -93 -4 5 -23 49 -41 98 -32 86 -35 90 -66 93 -17 2 -32 2
-32 0z"/>
</g>
</svg>
