<?xml version="1.0" standalone="no"?>
<!DOCTYPE svg PUBLIC "-//W3C//DTD SVG 20010904//EN"
 "http://www.w3.org/TR/2001/REC-SVG-20010904/DTD/svg10.dtd">
<svg version="1.0" xmlns="http://www.w3.org/2000/svg"
 width="900.000000pt" height="438.000000pt" viewBox="0 0 900.000000 438.000000"
 preserveAspectRatio="xMidYMid meet">
<metadata>
Created by potrace 1.16, written by Peter Selinger 2001-2019
</metadata>
<g transform="translate(0.000000,438.000000) scale(0.100000,-0.100000)"
fill="#fff" stroke="none">
<path d="M2933 3953 c-9 -3 -4 -16 16 -41 56 -73 64 -140 27 -223 -33 -72 -39
-158 -13 -192 10 -15 12 -12 13 22 4 89 36 140 135 217 46 35 59 51 59 72 0
85 -154 179 -237 145z"/>
<path d="M3270 3873 c0 -15 -9 -46 -21 -69 -20 -43 -43 -65 -129 -127 -82 -59
-116 -141 -99 -233 5 -26 8 -49 6 -50 -2 -2 -49 14 -105 36 -201 78 -384 112
-602 112 -235 0 -416 -35 -562 -108 -110 -55 -179 -107 -271 -203 -111 -117
-214 -173 -372 -205 -145 -30 -221 -103 -232 -223 -4 -50 -2 -63 19 -92 12
-19 44 -48 70 -65 26 -17 47 -37 47 -44 3 -49 77 -136 139 -161 30 -13 32 -16
32 -68 0 -65 10 -66 57 -4 l33 43 0 -76 c0 -96 11 -97 72 -12 l46 64 74 12
c91 16 272 16 358 0 439 -80 774 -408 865 -848 9 -41 14 -77 11 -79 -2 -2 -13
11 -24 29 -23 38 -82 74 -126 80 -27 3 -33 -2 -66 -61 -37 -65 -99 -141 -116
-141 -5 0 -8 18 -6 40 2 22 1 57 -3 78 l-7 37 -22 -55 c-25 -62 -65 -129 -89
-149 -13 -10 -27 -11 -68 -2 -135 29 -212 137 -165 229 22 43 20 85 -5 108
-17 15 -36 19 -94 19 -65 0 -78 -3 -116 -30 -143 -100 -131 -343 24 -512 21
-23 34 -43 30 -46 -4 -3 -27 -8 -50 -12 -24 -4 -46 -11 -49 -16 -8 -14 107
-63 219 -94 170 -46 361 -35 529 31 250 98 453 328 521 589 12 47 25 85 29 85
11 0 21 -151 15 -244 -8 -115 -29 -199 -77 -303 -62 -132 -148 -243 -263 -334
-29 -23 -42 -39 -32 -39 39 0 179 34 289 71 65 22 121 37 124 35 8 -8 -122
-157 -185 -212 -82 -71 -186 -146 -279 -199 l-79 -46 45 7 c367 51 629 180
875 428 77 78 141 154 180 214 33 51 61 88 63 83 6 -18 -47 -199 -84 -288 -33
-81 -82 -174 -130 -248 l-19 -30 48 35 c259 185 470 505 548 833 13 53 27 97
30 97 11 0 22 -100 28 -260 l6 -155 47 75 c99 157 179 357 215 537 14 67 18
134 17 283 0 173 -3 209 -27 321 -63 296 -202 589 -392 827 -32 39 -62 72 -66
72 -5 0 -9 -10 -9 -23 0 -43 -30 -142 -67 -217 -74 -151 -245 -283 -420 -325
-78 -19 -254 -17 -303 3 -29 12 -24 14 65 31 169 31 346 170 423 331 48 102
62 163 62 277 0 240 -129 441 -358 557 -64 33 -72 32 -72 -1z"/>
<path d="M7835 2569 c-39 -66 -98 -120 -175 -159 -50 -25 -61 -35 -58 -53 3
-19 11 -23 58 -27 l55 -5 0 -255 c0 -253 0 -255 25 -300 63 -114 252 -121 353
-13 27 29 27 30 8 47 -20 18 -24 18 -71 -9 -34 -20 -63 -19 -91 4 -24 19 -24
20 -27 275 l-3 256 96 0 95 0 0 45 0 45 -90 0 -89 0 -3 98 c-3 95 -3 97 -28
100 -21 2 -30 -7 -55 -49z"/>
<path d="M5114 2485 c-25 -39 -100 -82 -175 -102 -59 -15 -69 -21 -69 -39 0
-16 8 -24 28 -28 15 -4 41 -17 57 -30 l30 -24 3 -237 c3 -213 2 -239 -14 -256
-9 -10 -25 -19 -34 -19 -37 0 -80 -22 -80 -41 0 -18 10 -19 205 -19 113 0 208
0 213 0 4 0 8 10 10 23 2 20 -4 26 -38 37 -22 7 -46 20 -53 28 -8 11 -13 82
-15 247 l-4 232 39 32 c87 72 192 99 249 63 61 -39 68 -70 72 -337 5 -273 8
-262 -75 -273 -43 -6 -48 -10 -48 -32 0 -16 5 -24 14 -22 29 6 377 3 394 -3
13 -6 17 -2 17 19 0 28 -1 29 -67 46 l-41 10 -4 273 c-3 296 -5 303 -65 358
-46 43 -78 59 -134 68 -99 16 -221 -20 -310 -90 l-39 -31 0 86 c0 85 0 86 -25
86 -15 0 -31 -9 -41 -25z"/>
<path d="M6229 2457 c-68 -19 -131 -60 -187 -122 -63 -69 -92 -143 -99 -252
-7 -101 19 -194 75 -268 84 -111 173 -149 335 -143 89 3 111 8 167 34 61 29
170 109 170 125 0 4 -11 14 -24 23 -23 15 -28 14 -86 -17 -206 -106 -422 20
-424 248 l-1 70 100 0 c55 0 175 -4 268 -8 l167 -8 0 30 c0 17 -10 56 -21 88
-27 74 -116 163 -186 187 -65 22 -197 29 -254 13z m182 -72 c40 -26 69 -77 76
-136 l6 -39 -172 0 -171 0 6 28 c14 66 27 92 61 126 60 60 123 67 194 21z"/>
<path d="M7063 2460 c-127 -27 -203 -115 -203 -235 0 -92 43 -165 120 -205 19
-9 82 -30 140 -45 130 -33 176 -58 190 -100 13 -40 2 -70 -39 -109 -25 -24
-42 -31 -89 -34 -98 -7 -182 48 -249 163 -30 51 -47 62 -72 46 -21 -14 2 -200
27 -219 58 -44 295 -67 393 -39 108 32 179 121 181 227 2 126 -69 198 -242
245 -144 40 -177 54 -205 86 -96 115 104 221 232 123 17 -13 49 -51 69 -84 20
-33 42 -61 48 -61 16 -2 50 2 54 6 9 8 -22 186 -34 196 -37 31 -241 56 -321
39z"/>
</g>
</svg>
