<?xml version="1.0" standalone="no"?>
<!DOCTYPE svg PUBLIC "-//W3C//DTD SVG 20010904//EN"
 "http://www.w3.org/TR/2001/REC-SVG-20010904/DTD/svg10.dtd">
<svg version="1.0" xmlns="http://www.w3.org/2000/svg"
 width="1280.000000pt" height="800.000000pt" viewBox="0 0 1280.000000 800.000000"
 preserveAspectRatio="xMidYMid meet">
<metadata>
Created by potrace 1.16, written by Peter Selinger 2001-2019
</metadata>
<g transform="translate(0.000000,800.000000) scale(0.100000,-0.100000)"
fill="#fff" stroke="none">
<path d="M300 4010 l0 -1290 225 0 225 0 2 1001 3 1001 805 -1001 805 -1001
1388 0 1387 0 0 210 0 210 -895 0 -895 0 0 335 0 335 720 0 720 0 0 210 0 210
-720 0 -720 0 0 325 0 325 895 0 895 0 0 210 0 210 -1120 0 -1120 0 -2 -1263
-3 -1263 -1015 1260 -1015 1261 -283 3 -282 2 0 -1290z"/>
<path d="M5667 5288 c5 -7 472 -588 1037 -1290 l1027 -1278 294 0 c162 0 295
2 295 5 0 3 -232 294 -516 646 l-516 640 364 452 c199 249 432 538 516 642
l152 190 -287 3 c-158 1 -293 0 -299 -2 -6 -2 -175 -207 -374 -455 -200 -249
-367 -450 -372 -449 -5 2 -172 206 -371 453 l-362 450 -299 3 c-240 2 -297 0
-289 -10z"/>
<path d="M8790 5090 l0 -210 450 0 450 0 0 -1080 0 -1080 225 0 225 0 0 1080
0 1080 440 0 440 0 0 210 0 210 -1115 0 -1115 0 0 -210z"/>
<path d="M6105 3284 c-242 -301 -441 -551 -443 -555 -2 -5 129 -9 292 -9 l295
0 295 368 c163 202 294 373 291 380 -4 11 -284 362 -289 362 0 0 -199 -246
-441 -546z"/>
<path d="M12082 3466 c-93 -31 -154 -96 -168 -182 -16 -102 52 -188 178 -224
37 -11 98 -29 136 -40 82 -23 112 -49 112 -95 0 -63 -77 -104 -177 -92 -56 6
-95 33 -108 75 l-9 32 -79 0 -78 0 7 -37 c23 -135 154 -213 335 -200 174 12
280 111 267 249 -3 27 -14 62 -25 76 -33 44 -100 90 -156 106 -28 9 -85 25
-126 36 -42 12 -83 31 -97 45 -73 73 35 168 154 135 37 -10 92 -58 92 -81 0
-5 34 -9 75 -9 82 0 82 0 63 61 -14 47 -64 101 -121 131 -53 28 -208 35 -275
14z"/>
<path d="M11628 3175 l-3 -295 -26 -26 c-49 -49 -138 -31 -161 33 l-12 33 -73
0 -73 0 0 -27 c1 -37 31 -103 61 -130 83 -76 258 -81 352 -10 23 18 52 52 65
77 21 43 22 53 22 342 l0 298 -75 0 -74 0 -3 -295z"/>
<path d="M11073 2873 c-30 -6 -63 -49 -63 -84 0 -42 38 -81 82 -82 66 -2 109
47 94 108 -10 39 -65 67 -113 58z"/>
</g>
</svg>
